PathFileType	4	(X/Y/Z)	./resultDataOpenSim/trcMotMarkerGrf/sub06/qtm-05-05.trc
DataRate	CameraRate	NumFrames	NumMarkers	Units	OrigDataRate	OrigDataStartFrame	OrigNumFrames
250.000000	250.000000	5	24	m	250.000000	127	505
Frame#	Time	L.Toe.Tip			R.Toe.Tip			L.Ankle.Lat			R.Ankle.Lat			L.Ankle.Med			R.Ankle.Med			L.Heel			R.Heel			L.Knee.Lat			R.Knee.Lat			L.Knee.Med			R.Knee.Med			L.Thigh.Upper			R.Thigh.Upper			L.ASIS			R.ASIS			V.Sacral			L.Acromium			R.Acromium			C7			L.Elbow			R.Elbow			L.Wrist.Lat			R.Wrist.Lat
		X1	Y1	Z1	X2	Y2	Z2	X3	Y3	Z3	X4	Y4	Z4	X5	Y5	Z5	X6	Y6	Z6	X7	Y7	Z7	X8	Y8	Z8	X9	Y9	Z9	X10	Y10	Z10	X11	Y11	Z11	X12	Y12	Z12	X13	Y13	Z13	X14	Y14	Z14	X15	Y15	Z15	X16	Y16	Z16	X17	Y17	Z17	X18	Y18	Z18	X19	Y19	Z19	X20	Y20	Z20	X21	Y21	Z21	X22	Y22	Z22	X23	Y23	Z23	X24	Y24	Z24

127	0.504	-0.16829851	0.077591505	-0.042487104	-0.80768674	0.03442048	0.082224396	-0.29864578	0.10000905	-0.069875598	-0.93242184	0.087746268	0.10094068	-0.30217017	0.11640788	0.014409943	-0.90088271	0.10850603	0.019440179	-0.36111971	0.059995031	-0.022840878	-0.98675585	0.081822201	0.034559819	-0.40970126	0.45513257	-0.069530899	-0.74210772	0.43159656	0.15261314	-0.42629204	0.44134991	0.053105289	-0.7553424	0.4342906	0.020945723	-0.58530133	0.80557124	-0.11951021	-0.65117009	0.78791007	0.22124954	-0.52613972	0.84881167	-0.067992817	-0.54442348	0.84391876	0.18046866	-0.71975438	0.91902341	0.050344121	-0.61367105	1.3280643	-0.14088584	-0.58976079	1.322018	0.2176249	-0.68045391	1.3575923	0.043853293	-0.69724377	1.0247054	-0.1609323	-0.61609174	1.0107368	0.31968772	-0.6268021	0.8006066	-0.22644308	-0.38335125	0.91408611	0.29288244
128	0.508	-0.15423648	0.077883672	-0.04103793	-0.8075846	0.034334763	0.082112177	-0.28491273	0.10010285	-0.06888788	-0.93200668	0.08794573	0.10066025	-0.28870842	0.11655088	0.015462912	-0.90051384	0.10841845	0.019084699	-0.34718976	0.060207297	-0.021914803	-0.98660421	0.082337791	0.03435248	-0.40238126	0.4526823	-0.068679586	-0.7378994	0.4296624	0.15239899	-0.41957984	0.4390237	0.05410452	-0.75073332	0.43221304	0.020758364	-0.57763471	0.80275345	-0.11948853	-0.64649234	0.78535513	0.22198656	-0.51876523	0.84613053	-0.067698081	-0.53851451	0.84124545	0.18089796	-0.71236176	0.91600485	0.049728016	-0.60728388	1.3253994	-0.14091702	-0.58400986	1.3194859	0.21765473	-0.6745534	1.3548768	0.043815325	-0.69235864	1.0228539	-0.16139732	-0.60846942	1.0081616	0.32012281	-0.62261438	0.79790571	-0.22630582	-0.37491192	0.91380018	0.29194983
129	0.512	-0.14066989	0.077891821	-0.039698839	-0.80747749	0.034267185	0.082015973	-0.27163775	0.10005528	-0.067837836	-0.93160587	0.088184759	0.10035377	-0.27552833	0.11671527	0.016594013	-0.90005772	0.10836458	0.018725709	-0.33359945	0.06038948	-0.02078362	-0.98637709	0.082878523	0.034039628	-0.39494887	0.45019422	-0.067884886	-0.73341085	0.42789576	0.1522849	-0.41291957	0.43668845	0.055066606	-0.74610352	0.4301914	0.020599261	-0.5699261	0.79982293	-0.11945731	-0.64185363	0.78283041	0.22300184	-0.51133976	0.84337757	-0.067334508	-0.53274943	0.83846333	0.18137719	-0.70475958	0.91301105	0.048681388	-0.6008103	1.322629	-0.14096734	-0.57824883	1.3168322	0.217699	-0.66862909	1.3520908	0.043761568	-0.68732657	1.0207624	-0.16171417	-0.60085068	1.0054881	0.32058052	-0.6183011	0.7951423	-0.22614646	-0.36647883	0.91340006	0.2910493
130	0.516	-0.12760255	0.077633472	-0.03847318	-0.80738555	0.034213056	0.081910894	-0.25882888	0.099846372	-0.066717096	-0.93121989	0.088457942	0.1000384	-0.26265536	0.11689476	0.01782931	-0.89950105	0.10834318	0.018369986	-0.32045913	0.060500285	-0.019398256	-0.9860436	0.083418246	0.033641224	-0.38742625	0.44769959	-0.067141829	-0.7287934	0.42626557	0.1522497	-0.40624059	0.43430789	0.055971796	-0.74160144	0.42823057	0.02043739	-0.56217926	0.79679283	-0.11941222	-0.63660705	0.78016511	0.22346363	-0.50383347	0.84054726	-0.066910076	-0.52710987	0.83556171	0.18189257	-0.69710725	0.91003368	0.047289776	-0.59418409	1.3197665	-0.14101996	-0.5724612	1.3140771	0.21777147	-0.66267895	1.3492617	0.04368045	-0.68198302	1.0183755	-0.16172411	-0.59324724	1.0027085	0.32106841	-0.61391763	0.79231349	-0.22598608	-0.35803547	0.91289672	0.29018978
131	0.52	-0.11503213	0.077128628	-0.037352167	-0.80731746	0.034165411	0.081789499	-0.24648105	0.099454664	-0.065531621	-0.93083924	0.088761226	0.099734362	-0.25013336	0.11703917	0.019146267	-0.89889729	0.10836076	0.018038594	-0.30785256	0.060513624	-0.017725466	-0.98565975	0.083961634	0.033228083	-0.37983995	0.4452137	-0.066453564	-0.72435056	0.4246627	0.15222526	-0.39943526	0.43182743	0.056800157	-0.73727445	0.42633053	0.02025625	-0.55443179	0.79368351	-0.11936315	-0.63033356	0.77716745	0.22283344	-0.49623224	0.83763701	-0.066443498	-0.52155867	0.83254644	0.18243732	-0.68958821	0.90703625	0.045705147	-0.58745169	1.3168268	-0.14107036	-0.5666417	1.3112319	0.2178754	-0.65672247	1.3464354	0.043561434	-0.67640672	1.0157636	-0.16151707	-0.58564326	0.99981496	0.32158967	-0.60948126	0.78942026	-0.22582601	-0.34960355	0.91229864	0.28937456
